<mxfile host="app.diagrams.net" agent="Mozilla/5.0 (Windows NT 10.0; Win64; x64) AppleWebKit/537.36 (KHTML, like Gecko) Chrome/127.0.0.0 Safari/537.36" version="24.7.6">
  <diagram id="l2aKFoh6-Bn0gOPZ2l0T" name="Page-1">
    <mxGraphModel dx="2074" dy="738" grid="1" gridSize="10" guides="1" tooltips="1" connect="1" arrows="1" fold="1" page="1" pageScale="1" pageWidth="1169" pageHeight="827" math="0" shadow="0">
      <root>
        <mxCell id="0" />
        <mxCell id="1" parent="0" />
        <mxCell id="EtyFFYK8GC0LLriPXOJL-1" value="" style="whiteSpace=wrap;html=1;strokeColor=#7F00FF;" parent="1" vertex="1">
          <mxGeometry x="40" y="80" width="370" height="280" as="geometry" />
        </mxCell>
        <mxCell id="EtyFFYK8GC0LLriPXOJL-2" value="&lt;span style=&quot;font-family: Aptos, sans-serif; font-size: 16px; text-align: start; background-color: rgb(255, 255, 255);&quot;&gt;Serveur applicatif consolidé de &lt;font color=&quot;#7f00ff&quot;&gt;recette &lt;/font&gt;(&lt;/span&gt;&lt;span style=&quot;font-family: Aptos, sans-serif; font-size: 16px; text-align: start;&quot;&gt;&lt;font color=&quot;#7f00ff&quot;&gt;&lt;b&gt;DXC&lt;/b&gt;&lt;/font&gt;/&lt;font color=&quot;#408000&quot;&gt;&lt;b&gt;CDG&lt;/b&gt;&lt;/font&gt;&lt;/span&gt;&lt;span style=&quot;font-family: Aptos, sans-serif; font-size: 16px; text-align: start; background-color: rgb(255, 255, 255);&quot;&gt;) : 10.250.249.21&lt;/span&gt;" style="text;strokeColor=none;align=center;fillColor=none;html=1;verticalAlign=middle;whiteSpace=wrap;rounded=0;" parent="1" vertex="1">
          <mxGeometry x="60" y="360" width="305" height="60" as="geometry" />
        </mxCell>
        <mxCell id="EtyFFYK8GC0LLriPXOJL-33" style="edgeStyle=orthogonalEdgeStyle;rounded=0;orthogonalLoop=1;jettySize=auto;html=1;exitX=1;exitY=0.75;exitDx=0;exitDy=0;" parent="1" source="EtyFFYK8GC0LLriPXOJL-3" target="EtyFFYK8GC0LLriPXOJL-4" edge="1">
          <mxGeometry relative="1" as="geometry" />
        </mxCell>
        <mxCell id="EtyFFYK8GC0LLriPXOJL-3" value="tomcat&lt;br&gt;digilab&lt;br&gt;backend&lt;br&gt;springBoot" style="rounded=0;whiteSpace=wrap;html=1;strokeColor=#7F00FF;fillColor=#E6E6E6;" parent="1" vertex="1">
          <mxGeometry x="60" y="100" width="100" height="210" as="geometry" />
        </mxCell>
        <mxCell id="EtyFFYK8GC0LLriPXOJL-34" style="edgeStyle=orthogonalEdgeStyle;rounded=0;orthogonalLoop=1;jettySize=auto;html=1;exitX=1;exitY=0.5;exitDx=0;exitDy=0;" parent="1" source="EtyFFYK8GC0LLriPXOJL-4" target="EtyFFYK8GC0LLriPXOJL-11" edge="1">
          <mxGeometry relative="1" as="geometry" />
        </mxCell>
        <mxCell id="EtyFFYK8GC0LLriPXOJL-4" value="Répertoire de dépôt (OUT)&lt;br&gt;/home/digilab/backend/flux/out/[codeFlux]/" style="rounded=1;whiteSpace=wrap;html=1;strokeColor=#7F00FF;fillColor=#FFFFCC;" parent="1" vertex="1">
          <mxGeometry x="240" y="240" width="60" height="60" as="geometry" />
        </mxCell>
        <mxCell id="EtyFFYK8GC0LLriPXOJL-32" style="edgeStyle=orthogonalEdgeStyle;rounded=0;orthogonalLoop=1;jettySize=auto;html=1;exitX=0;exitY=0.25;exitDx=0;exitDy=0;entryX=1;entryY=0.25;entryDx=0;entryDy=0;" parent="1" source="EtyFFYK8GC0LLriPXOJL-6" target="EtyFFYK8GC0LLriPXOJL-3" edge="1">
          <mxGeometry relative="1" as="geometry" />
        </mxCell>
        <mxCell id="EtyFFYK8GC0LLriPXOJL-6" value="Répertoire de réception&amp;nbsp;&lt;span style=&quot;background-color: initial;&quot;&gt;(IN)&lt;/span&gt;&lt;div&gt;/home/digilab/backend/flux/in/[codeFlux]/&lt;/div&gt;" style="rounded=1;whiteSpace=wrap;html=1;strokeColor=#7F00FF;fillColor=#FFFFCC;" parent="1" vertex="1">
          <mxGeometry x="240" y="150" width="60" height="60" as="geometry" />
        </mxCell>
        <mxCell id="EtyFFYK8GC0LLriPXOJL-7" value="&lt;b&gt;CFT&lt;/b&gt;" style="shape=cylinder3;whiteSpace=wrap;html=1;boundedLbl=1;backgroundOutline=1;size=15;rotation=90;" parent="1" vertex="1">
          <mxGeometry x="625" y="130" width="50" height="200" as="geometry" />
        </mxCell>
        <mxCell id="EtyFFYK8GC0LLriPXOJL-8" value="" style="rounded=0;whiteSpace=wrap;html=1;strokeColor=#FF8000;" parent="1" vertex="1">
          <mxGeometry x="760" y="80" width="320" height="280" as="geometry" />
        </mxCell>
        <mxCell id="EtyFFYK8GC0LLriPXOJL-9" value="&lt;span style=&quot;font-family: Aptos, sans-serif; font-size: 16px; text-align: start; background-color: rgb(255, 255, 255);&quot;&gt;Environnement de &lt;font color=&quot;#ff8000&quot;&gt;recette &lt;/font&gt;de Bank Al-Maghrib (&lt;/span&gt;&lt;span style=&quot;font-family: Aptos, sans-serif; font-size: 16px; text-align: start;&quot;&gt;&lt;font color=&quot;#ff8000&quot;&gt;&lt;b&gt;BKAM&lt;/b&gt;&lt;/font&gt;&lt;/span&gt;&lt;span style=&quot;font-family: Aptos, sans-serif; font-size: 16px; text-align: start; background-color: rgb(255, 255, 255);&quot;&gt;)&lt;/span&gt;" style="text;strokeColor=none;align=center;fillColor=none;html=1;verticalAlign=middle;whiteSpace=wrap;rounded=0;" parent="1" vertex="1">
          <mxGeometry x="767.5" y="360" width="305" height="60" as="geometry" />
        </mxCell>
        <mxCell id="EtyFFYK8GC0LLriPXOJL-10" value="BASFIM" style="shape=cylinder3;whiteSpace=wrap;html=1;boundedLbl=1;backgroundOutline=1;size=15;strokeColor=#FF8000;fillColor=#E6E6E6;" parent="1" vertex="1">
          <mxGeometry x="990" y="230" width="60" height="80" as="geometry" />
        </mxCell>
        <mxCell id="EtyFFYK8GC0LLriPXOJL-31" style="edgeStyle=orthogonalEdgeStyle;rounded=0;orthogonalLoop=1;jettySize=auto;html=1;exitX=0;exitY=0;exitDx=0;exitDy=0;" parent="1" source="EtyFFYK8GC0LLriPXOJL-11" target="EtyFFYK8GC0LLriPXOJL-6" edge="1">
          <mxGeometry relative="1" as="geometry" />
        </mxCell>
        <mxCell id="EtyFFYK8GC0LLriPXOJL-11" value="Gatway" style="ellipse;whiteSpace=wrap;html=1;aspect=fixed;strokeColor=#7F00FF;" parent="1" vertex="1">
          <mxGeometry x="450" y="190" width="80" height="80" as="geometry" />
        </mxCell>
        <mxCell id="EtyFFYK8GC0LLriPXOJL-20" style="edgeStyle=orthogonalEdgeStyle;rounded=0;orthogonalLoop=1;jettySize=auto;html=1;exitX=1;exitY=0;exitDx=0;exitDy=0;entryX=0;entryY=0.25;entryDx=0;entryDy=0;" parent="1" source="EtyFFYK8GC0LLriPXOJL-12" target="EtyFFYK8GC0LLriPXOJL-13" edge="1">
          <mxGeometry relative="1" as="geometry" />
        </mxCell>
        <mxCell id="EtyFFYK8GC0LLriPXOJL-12" value="Gatway" style="ellipse;whiteSpace=wrap;html=1;aspect=fixed;strokeColor=#FF8000;" parent="1" vertex="1">
          <mxGeometry x="780" y="190" width="80" height="80" as="geometry" />
        </mxCell>
        <mxCell id="EtyFFYK8GC0LLriPXOJL-13" value="Applicatif" style="rounded=0;whiteSpace=wrap;html=1;strokeColor=#FF8000;fillColor=#E6E6E6;" parent="1" vertex="1">
          <mxGeometry x="890" y="130" width="60" height="180" as="geometry" />
        </mxCell>
        <mxCell id="EtyFFYK8GC0LLriPXOJL-17" style="edgeStyle=orthogonalEdgeStyle;rounded=0;orthogonalLoop=1;jettySize=auto;html=1;exitX=1;exitY=0;exitDx=0;exitDy=0;entryX=0.5;entryY=1;entryDx=0;entryDy=0;entryPerimeter=0;" parent="1" source="EtyFFYK8GC0LLriPXOJL-11" target="EtyFFYK8GC0LLriPXOJL-7" edge="1">
          <mxGeometry relative="1" as="geometry" />
        </mxCell>
        <mxCell id="EtyFFYK8GC0LLriPXOJL-26" style="edgeStyle=orthogonalEdgeStyle;rounded=0;orthogonalLoop=1;jettySize=auto;html=1;exitX=1;exitY=0.25;exitDx=0;exitDy=0;entryX=0.267;entryY=0;entryDx=0;entryDy=0;entryPerimeter=0;" parent="1" source="EtyFFYK8GC0LLriPXOJL-13" target="EtyFFYK8GC0LLriPXOJL-10" edge="1">
          <mxGeometry relative="1" as="geometry" />
        </mxCell>
        <mxCell id="EtyFFYK8GC0LLriPXOJL-28" style="edgeStyle=orthogonalEdgeStyle;rounded=0;orthogonalLoop=1;jettySize=auto;html=1;exitX=0.145;exitY=0;exitDx=0;exitDy=4.35;exitPerimeter=0;entryX=0.063;entryY=0.413;entryDx=0;entryDy=0;entryPerimeter=0;" parent="1" source="EtyFFYK8GC0LLriPXOJL-7" target="EtyFFYK8GC0LLriPXOJL-12" edge="1">
          <mxGeometry relative="1" as="geometry" />
        </mxCell>
        <mxCell id="EtyFFYK8GC0LLriPXOJL-29" style="edgeStyle=orthogonalEdgeStyle;rounded=0;orthogonalLoop=1;jettySize=auto;html=1;exitX=0;exitY=1;exitDx=0;exitDy=0;entryX=0.855;entryY=0;entryDx=0;entryDy=4.35;entryPerimeter=0;" parent="1" source="EtyFFYK8GC0LLriPXOJL-12" target="EtyFFYK8GC0LLriPXOJL-7" edge="1">
          <mxGeometry relative="1" as="geometry" />
        </mxCell>
        <mxCell id="EtyFFYK8GC0LLriPXOJL-37" style="edgeStyle=orthogonalEdgeStyle;rounded=0;orthogonalLoop=1;jettySize=auto;html=1;exitX=0.855;exitY=1;exitDx=0;exitDy=-4.35;exitPerimeter=0;entryX=0.763;entryY=0.9;entryDx=0;entryDy=0;entryPerimeter=0;" parent="1" source="EtyFFYK8GC0LLriPXOJL-7" target="EtyFFYK8GC0LLriPXOJL-11" edge="1">
          <mxGeometry relative="1" as="geometry" />
        </mxCell>
        <mxCell id="U_VhCcRRjhPpKKrQda5U-1" value="" style="shape=image;verticalLabelPosition=bottom;labelBackgroundColor=default;verticalAlign=top;aspect=fixed;imageAspect=0;image=data:image/png,iVBORw0KGgoAAAANSUhEUgAAAKUAAABbCAYAAAASs0WzAAAAAXNSR0IArs4c6QAAAARnQU1BAACxjwv8YQUAAAAJcEhZcwAADsMAAA7DAcdvqGQAABKCSURBVHhe7Z1JiF3FG8Vv/iCoqOCwcUARoysHdKHiwgguFCSCiQsHXBkFUQSFqCGICxG1BVcO4LAxOICiC3FaCLoR24US3TkgKiiCtoJTFolt/+qf8zjve1/dnju3mzpwee/WreG7Vae+qvvq1H2bZufQNTQMCP87+NnQMBg0UjYMDo2UDYNDI2XD4FAl5SeffNLdfffd3T///FMOvp955pljB3GELM5ll13WffPNNwdjLB7k7/lxyCbht99+66699trR9ddee62EZ/bEtA3DRJWU33//fXfiiSd2RxxxRLdv377ujz/+6N59993uq6++KseLL77Y3XjjjSNiZnE++OCD7owzzijXlwJsuPXWW0f5ff755yV89+7dhVwcDz74YHfdddeV69jy3nvvlY4Q7eEa+b311lslj4bhokrKb7/9tjv99NPL95mZmfJ53HHHlU9w4YUXFsJ8+OGH5TyLs1y4DYAOcvvtt3ffffdd9+OPP5aD7+eff365fuyxx3bPPvts6QjRnsMPP7w79dRTy/eGYSMlJUPi9PT0qBE/++yz7uijjy4N64AwP/30U/FYtTiOONTqIIxrjmiDAMk2bdrU/frrr6PvTz755MSwHO2Rh7zqqqvKZ8NwkZISL4PXgTAAj3XJJZcUT+UgXEM83998883u3HPPLemy+SR5MufTcKyDMK45og0C4fzef/zxx5fre/bsKeGUq/kkiPbs2rWrDPPxHhqGh5SUeCF5GTwQ3jB6LHmyLVu2jOIwzxTRljufdBsceMDTTjutO+mkk8o5JHv88cfL3PGJJ54oc8fMHr7fc889y3rwalgbpKTMHnLwTI7333+/fOKFanEiHnvssRI/Hu7hBLdBoCO88sorqdeGpBdccEFJl9nD9/nsaxgGJkh54MCB7qOPPho9YOBlIIM/wEAuvNKjjz5ahtAsToadO3eOPJcfzCkdeDq3AeDhrrnmmu6iiy4q8SGyk/mLL77oPv300/LQQ57Rntdff33MwzYMFxOk3L9/f/E2Gq75vnfv3vK0Lc8GfHhW/L6HnMUAT0eezANV5s0339w9//zzhdjg8ssvL15T16empro33nij2FSzmWG+zSmHj6YSahgc0jllQ8OhRCNlw+DQSNkwODRSNgwOjZQNg0MjZcPg0EjZMDhsKFKyEoSQVxrPhvWJKilpWK2G6FhOY5M2k6itJBa6Bh+he60p03Xd7WeJU/WicA+Lh5ZEWS5FQaVwlakO5WmiPZRBWctV9A8dVVKyVOeq74cffrgs5S2VVCu9FJlhqUJjbEPiJvGwA1KwnHnppZeO7IekhPFJ3SCJe+655wphOEchv3Xr1jGVEtcgppZLFY7ohHV7daiaUp60t9xyS0l/wgknLPoe1xOqpIyqb4QOrEjS8FQYogypfjgHrgJSb5YHYB1b+kZ5jSy+4B7FPVT0NOQh1ORugHg1T8i9nn322UWwQR4OkQKJnlRLqO0RhkgDin1akweZx8ZuRCx0bJf0kY41+tihyJsysA2I1H/99deqd+5DjZSUECCqvmksVN5UGo3yzDPPlIaiV1OpNDoaRrwEYXfccUdRhIOHHnpozHNQwbX4kIYGxCPQgFxDB4lULobTGbBTnQK7otwNkCdl9V1DkY4kTts7AOW9/PLLZQvGzz//POqkfHL/Kjci89iolJDWnXPOOQdDxhGV8rLLHQOApJl0byMhJSWV6qpvGgdiMExRaVQWQztk1PWPP/64NJ4qC0Iz/OA1oueYLz4NCEmUP58QOYZji9KpEekoEZSBQsi9meC2kRd5kBcHneT6668v5Pryyy9He4GwhQ7Gxjm+xylN9Njq5H1kimTDq3JfqKEE3aM7i42IlJRUKtI0Gh9iXnnllcU70QBqxG3bth2MPakGj8Cr0TDyHH3xf//995Gi3aGGzUgHIvEXCreNtORBXr6nJ/N81A1pGWLZUQlhhOixSf/LL79UySSyuVSP8z179oymCGCp97jekJKSHuoPORzyTlkD0cvj0OjzLvLzOVhf/H///Xe0B8dBuTHcdzNmdi0E2AZZ8GqkhaB4cbbqypP3zVXpJOQBYYAI5sMu+fJwUoPI5tuTM+0n4d65NyomSBmV5xFZAxEXL0aFASbknO/YsaOca7Iu9MWnwpm74k0BQ/3TTz89EU7ae++9twyvPDj0EWe+hxx1ED1c3Hnnnd0VV1wxJmImDuQhH9lNfjyFe4cTwTTUA+Xrv16Q9oEHHij3t1CyeQfayJggZVSeR2QPEwxxxNdwT0Ox/1oNhTfhwUBP2H3xOZi7aiiDeJwTzrxW4aQlnCkFyOwC8lx913xKQIc577zzxuZyEJdwbGDeJ7v5JYFzn6vWPDYPcn7PpKUepJSvkQ2yco+kyX7B2IhoyvOGwSGdUzY0HEo0UjYMDo2UDYNDI2XD4NBI2TA4NFI2DA6NlA2DQyNlw+BQJaWvJHCs9goCKz3bt28vnwIrLizrxbI9LkuIuq74UbmjcNd9Rv0mUF7E033HgzgNq4uUlDRi7V3iqwWW5eLSHIpsltXi2jkStosvvriojFgm1JKoRBGcY7cg4QZiDu7tzz//LEuLWkcHkJj1dy0Fkp4DYQqqe51n8reGlUVKytq7xGlE9xTyppDWPWtN/KA4Na/LdYQVgPTahuCgY6DiQTon8YOUQ6w7I8q4+uqry1q4QJ4SKCsN686QXnZmKiSuOekb1gYpKWm87F3iNA6NpDA8B2GbN28e86x8Zv/CQMPXdIWIETwcwoCbbrpprEx5SYQMlAWR5WHpNEcddVQRVJCGawDBg5Q8pAF0HqA9ORA3ajwj6RvWBikpaTwEpsAVKTQOjURjQRI8maulNcwy/OERIyCSxMM1QCDP+8gjjyxhlOleUnFdNuZqHlRBetuwwgFpuEYctiZAcg93JdFSNZoNy0P1QYfGie8SV+PQWHgYCIrEi7j3339/mZPhgfRAsRiQB6QAeElIQt50BJHOvSRwskFkH2qZM6ILxVt6uKdhesI2B+J4uIDnrWk0G1YPVVIKDGd6lziNQyP98MMPZWhHCCvC8IlHZe+Ki1mXAuaD0lCqI+AhIZCEw5GEcajVBi0elPwhx9NA7rPOOqt4ZT3kOCBqpsNsWF1MkJKG8AcRvJbeJS5vpqGdhwUamocfn7/RuNG7cL3vIQfgqdg9CPlcZEtaqcHVCfyJGjBXpMNoToitDP/MdTVXlHfXfBLgURkRgIeLwC4AblgbTJCSxsNz0EAceD29SxxAHOZ22r/CQcNJUU1ahvLoXfoechxsuXXy6QEoqsH9iRpkc0I60sknnzwKz7ZMYDN5x47UHnIOHRalPMd78L+IeKDsQaahYSUw75zS0f5KrmEtsGBSMmTrbRFxaG5oWEm0jWMNg8Oihu+GhrVAI2XD4NBI2TA4NFI2DA6NlA2DQ0pKlgK1ohOPvmXChUIKbwdLibw+2YXEUQEe1eL8mI92U9fJN4b5kanN54PnF4Um0T6/p2hHTWMqaBk2szHm5XGiDfMp4xU/s0c2KC++EwbIV+EcsS4c0SaPG8tI64WfhGr4+++/Z++6667Z6enpgyHLRy1PzgnnOpiamprdvn377MzMTDkHr7766uyWLVtmv/7663JOHA6Q5Uu8HTt2jOWxGJAX5b399tuz27ZtG5ULsMXt45rHeeqpp0bf+SSfWj0qL8qJ98x3wrK0scy+uKof1ZnqTYh5ObDP24b8o50C6bl3gXKUNtqnc/J39A7f2fqve1H1SpjOa+3eeeed0ourPWAOtTVlX7umZ7F6pD+5F1j75j2PrGHT4+ZubiSYIB3CCtdqZmvdEdxDzVbyQv+Jrb7OTlxkcVIyAa7pOrjttttGegHC+95PieegXrP3mfOCf942l2lQozB5rpHTd3sC1Q9vf0No4jI97ueFF14oOgfZ7ECk47rZmugGkJ57z8C9oH/VvVB3nJO/o5eU3CRQZVNxCC4gDaocVN4MI6hvkJvxrweIN7iO4VKPO6JaXJCekQqiDL0mz0ElUBnkre9UpIaYiEyk4aAsGqgvDiAfFxPTsQhzUFeqrwiJjemsfYiNT93SOXmNtRyBdyDIh4KLOMTlffC8OjEjliCn4O/PpJ1eeumljjc2qxyfBtAuaGopQxzIRDcR8IBXQNJ5KdediMM7SMH/HWYO3GzN9ToI82FVQ0V0y4CwzZs3pwf59JWTXWN4IG0cjgBhmQ2LRZZPdh/Yho0O6qRv6BZUZx6PMjxP3b/bQnyVP18ZAHvilIb78+E5s1n1nN2jQ2ljXMLj9CC7Z9DrKf1FpHFviwOv4Z5NngRPFoE38N2BHKjb2XZBz5+7ieoQlNnA7kJ65NyNjT1oaHjPbFgM5E1jPgy5fg/senRvCrBL74vPhl9HNq2hrjxPjQ5ADwy0keqQYZ4y+xCnNLo/99A+3SA/6hsPRzl4PR5Ia6MTHGDKQ1xNO8iDcn0KBKImVqiSUsbKtYpk2TxCQ6+AQSASuNbAcW6UgbQMGz6PE7K5SR+5F4NaxTkY1nzvEKCD0CiQZT5CAuosm9Z4vXpn1/xMW34hA47Bd3FmcEfj8DZR3R122GGlQ7GbQPcgTavauA+0P1pVkPGH7SZZu1dJGeceZMj8hUYCVDo9QB6JiT/E6SNPrYExWBWFgRiqDV2APNFxAiqecn3Oo7kXvVlYCNH7HnKErIc7NJfTu9cB+VIHLo4GlEN5bruQNRqEVL0CiEicuaGxdG6H14G8qI8cgHzc0QDqnLoXmYnDVhf2Qh1zzDFFmO3w+THtoJ+nSKd3uAvYC4gb+UNa5qmp6owxPEOce2j81/yFOQZQPH4GiNcimDtkcxLi+zyJ68RTfhx+PdrCHMbnKoD4NTuA8sjixPx1EHe+srlHT6MDe3RfupfsPhU3u+62UiZlezrK9ms6z2xyu2NeXtd893Teflzz82gv9UR9Cdiva7HeHMuWrsF4vAL/KjbB+IaGJaD3QWch8KG3oWElsGxS8nAx54oPnjU0LB9Ned4wOCzbUzY0rDQaKRsGh0bKhsGhkbJhcGikbBgcqqTkR3GWh/yIy1arDS3LLaVcpZXt2dIe+XKNe3WwVCZdqI6l3nu0I1OWq64zG5U+piOu8mRJsSaQWI+okpIfxf2P6FmUl6ZurdCnNpoP2MqP+tjOS7NY83XycR/EAZThYL2b1x+Sbjn3DlF4EzE6ANUjChpfDydPXt29devWsTVpgXJR9UA+rb/TQfhtmPx0T1qT3giokjIqfyLkZWJPpZLoxd6TCZM34HCvQ6O4V5K3ID7KlL179xaRq8pYiAck3vQ8qnQEH4g76HiuLgJxlYpypHiPoHzswa6IPtU4wM5HHnmkvOYQxM6nesJOl5tRFwtRHq1XpKRUo6qSOJ+amhppJmkI1CvyJEiopAhBbYLaGEJzjUaHVNL94XWkfIGQKGzIW72eckVI4uJBKEcNhOdB+xfjO2g8bCdfbI9QOl7Aip14UZGKT+zzDjlTkcERl7TZMiv31qca55N3Z6JNPOWUUya0lNiIHWxf6FvKVb37axLXO1JS0ghIllShEIQej3aPykY7KMmRCEwjqpEgIr1ZgFhUboS8lXq9yKThNDYGQxTXSQMgJnZGshAfz0hnIW/3ptjo0jqVx1QBRMke98cWA3+ttaBysr8xQSuId4Vc6kCUA1EBwzKdC/u4jieUzE5DOlsOAOT0pVwfpXQeZYLrGSkpfU7FAamkt6OyCdN+DiqVBoaEalCJXUVSrotYIhpxIXNt3Zy07rF0zuuiUalTNh2FfUGRLEKmShcpRGwIjRekIwI+IUm8v4x4fWBKUFONyxZ1XO98dAKG9Pvuu6+kVZ16xyMdNnLoPBsR1itSUnolcdCjNcRR2f4AxKHKVcNqQh4r1ImWDYkSAeOlosfiHLsY0lVufGjIQMNKlU7D4SWd2JCPTqb5YnzI8ftbLHwKIPuxBxuY4lA+x65du8o5wzs7Qrkv7xQ6p4NFbEQxzAQpDxw4MOahgA9xhPsczEGD+oS8RlKIRhiKbjwv0DApBTdplR7Eob0GGs6Ha83taDzmXxBUZOPQSKB8a9sFMvQ95FBP1KOuUTb208HxlCofe9kyQGdjKnDDDTeM2cd+Js2r6cCou5Undca82T3yRsAEKffv318aSEMNoMcCKknDnjwNh3pwbNA+klKJDL94CXkETQOAtkXgIWh88mQey1xM5WbDFv8KQadRHB6kGOIB5PR9NIB8sRlPSmOT1jtkDYpbIzAPHtSj6glAuhiXOqEuFCcCu7Spi85K/SvPpU4tho4mXWsYHNI5ZUPDoUQjZcPg0EjZMDg0UjYMDF33H2GdDbH5dM+kAAAAAElFTkSuQmCC;" vertex="1" parent="1">
          <mxGeometry x="567.5" y="260" width="165" height="91" as="geometry" />
        </mxCell>
        <mxCell id="U_VhCcRRjhPpKKrQda5U-2" value="" style="shape=image;verticalLabelPosition=bottom;labelBackgroundColor=default;verticalAlign=top;aspect=fixed;imageAspect=0;image=data:image/png,iVBORw0KGgoAAAANSUhEUgAAARgAAAB/CAYAAAA0CN3aAAAAAXNSR0IArs4c6QAAAARnQU1BAACxjwv8YQUAAAAJcEhZcwAADsMAAA7DAcdvqGQAABX/SURBVHhe7Z1NqFVVG8eP76gPSLTAC+Elm1ROFGkgVJMgbwOhvEIW1ajBDQ1E8DqRRG44UUkEr+QggjLICyVFgzRsYoGDEBv0NcmwhJJSrKih7/mte57jc9Zde5+9zzn73vPx/8Hm3rPX/lh7nb3++3nWXs9zlt2qUxNCiAr4X+OvEEL0HAmMEKIyJDBCiMqQwAghKmNkBObHH3+sTUxMhL9V8/7779deffXV2n///ddYI8RokhQYOgYdhI4Cf/75Z+3pp5+uLVu2rGX56quvQjmktlm/fv2idOiirFy5snbfffc1r8/XlcWu1+D6rMxfS+paY0G5//77a3feeWfjkxCjSSkL5ssvv6zxVpuF/x9//PEFndJvc+nSpdpDDz3UKFlaEJbly5c3Ps1z8uTJZl1/+OGH2qFDh2pvvPFGKENMduzY0byec+fO1ebm5lpExMr+/fff8Pnw4cPh7wMPPBD+CjHqdOwiPfbYY6GDvffee+GJPugghKdOnQrXZJbKqlWrgjDBvffeW3v99deTVgnrnnjiidrVq1flFgnh6GoM5uGHHw5/efovBVmuW8o1QyDeeuut8DeL8fHx2po1a2pff/118/+dO3e2FVBE5fz580FkEBvEFzESYtTpSmDuuuuuBe4AbpN19KoHOhGLzz77rOnm2NKpa4Y4MHZi/yNIiAVWTEq07FpphwsXLtQeffTRRokQAroSGMYefv7558anefwYDB005VL0K4ghbo4HS4RrmZ6erm3btq1FZPy1zs7OLigXYtTpSmDMNTJXabEp4yIV4cqVK7XLly8nLRHOMzY2Vvvjjz8aa1qhDfLKhRhFOhYYOjBvWV5++eXccY0q6aWLhFgx3oLbw768HfNvyNqJKeW//fZbc1DYwCryr/yFGCVKCYwfX8Ed4K3Liy++2CgdPF566aXm9SAMuEM2ODs5ORkGbq0cMT169GiLmPr2oJz26JfX8kL0A0rXUDFM1uNV/pEjRwZqPEqIXtDVGIxozxdffBHcSImLGEVkwQghKkMWjBCiMiQwQojKkMAIISpDAiOEqAwJjBCiMiQwbSA/jOWIyYOZzYuVMU+IQSEpMDa93Wap2sKksVT8j4+atnKf7Q5S65k+zzrK4uPa1Hq/X7yNLXYM9onLehHR/eCDDzb+m6+zP76/HsuYJ4SYJ9eC8RnfWEhdYGRlcysKHZMZrnRY0h3s3bs3HN/Ode3atQXWQCr2aGZmJuxnU/inpqZCnay824huLy5WZwIaOTZtQIgA9URY4ox5Qow6XbtIdN6y2dzoqKnYHt+Zd+3a1Tauh+OwbN++vbGmWmxWrtV5w4YNtY0bN4YEVUKIhXQtMIiKz+bWjm+//TaIC/lTTEBMpAg+RDCKgEvE2AjBiV6kipBypVhSYy0Ec7JwnYioT7BFvUlQ9dNPP4U6tMuYJ8SokSswPtrYxjmMTrO54cKQNyVOe0AnxuWw49oYTBbHjx8PrpF32+DEiROhTlbvlGBxLnOh/JKX5jKVXEsIkU/hMRjGPvzTudNsbmfPng1WAAIRY2MwluE/S2TyXKN4DCYWoE5JpQc1vGsnhLhN1y4SlMnmRkc9cOBAEIgsAcF12rp1a3A9YrpxjYwyLlKMt2JSbpMQ4jY9EZisbG5ZIAwM8GKlIDRYPnv27GkOEiMirH/yySfDZ0+Wa1SGTlwkGyfyP9Ny8eLFIDipLHeIVRHBEmKY6Vhg2mVz8+WM31y/fr1RMg/bkkibfWHdunXNsROEirc1sYiY8Ozbt695bBafgzceg+nlLxsgTNSJ+nHs1JswIcRtlA+mAhC7/fv3144dOybxESNNT1wk0QrzYjZv3ixxESOPLBghRGXIghFCVIYERghRGRIYIURlSGCEEJUhgRFCVIYEJgGhBL2coNcJzKVRhjwx6CQFho6VldHO4H9f5qfFp/b35czITWWm88cvsk2VkIbBp5+wa/Kzho24rnGMVVZbsd5HqcfCpgx5YtDJtWCyMtrREegkltnNptLQYegsW7ZsCR3UyohuJigwtgp8RLalaog7p9+GpZsYpKKkghevXLlSu3nz5oIEU1xPXja+vLbKQxnyxDBQ2kWi47z77rsLYnAIFKSTEYxIB929e3ejZD5QkAhqAgMJEEzBvoiJDybsJxCVtWvXhhgpEmx5oYRUNr52bSXEsFNaYHgSr1mzpjY+Pt5Ycxs6HZZKKrud5VPJS9pkUclEZ/ea2E2xJbaqgM7vI6spR1SI7qaOXigtyjqVjS+vrdqBIClDnhh0cgUmldEuTyCMlItBR8RtyiOV1MlHZafEoCjehfFLkaTgPi0DHZ5jkZ/XyMrGV6SthBhmCo/BxBnt8kh1LLNu8kilpfRjMN3+QkCnICaIil0/loyNNxkmYO2y8QkxSpR2kci9e/ny5TDoGWNWSioTHduzX17uXnONUgmcuqWMi+RBRNjX56DBUjlz5kzSlfPZ+PLaSohRoLTA0IHoYDt37mx5gvOmhI743HPP1T788MOWJzgd+MiRI2E/n5TKw4AoCZz8z4L0kk5dJCw38G+BWPg9Jgakv/nmm8xsfO3aqgzswyLEIFFaYMDeglhmNxZgHZ3q3LlzofNZGWMrDITGKSltzIKFpOFkxWM8w+O3YSnbMbsB0WBwNyV6CCnWyR133JGbjS+vrYQYdpQPZgDAulOGPDGIdGTBiMVFGfLEoCILRghRGbJghBCVIYERQlSGBEYIURkSGCFEZUhghBCVIYGpwyxbgjkXYxIfM5y7CdoUYpBICgw3P53AZp7a4jsg//uyONMbHcmXs8Qd2Dq232appsOvWLGimT0urpeFPWS1iw+LaNcuEGfLE2JYybVg8jLaETdEsJ+Vzc7OhiBFLyJTU1MhQppyoqLZxzob29m0ejsGi5UtJkzzX716dfgfEcnLUAdxu1h4Q5F2SaWyEGJYKe0i0dFIR0DH8YGLdEg6HjFIKfOfTjY2NhaCBilnO7aPY4/6JdtbKkNdHp22ixDDTGmBQSAQilRKBctYh9US41MxFEnd0C1Z7gxLbCHhrhw8eDAIA/9nZajLo2i7IDhx0KcQw0quwKQy2gEdBrciBpeHsQzjxIkTzShjnuCnT58O8TR0RtbZmAcd2c7D0gsXCaEgFYN3ZWxpZyFlZagzum0XIUaFwmMwPqNdlpWCcNy4caPx6fYYDOvZ56OPPgrr6XAck/VAh+cz27JPP2B1wvKKM9R12y5CjAqlXaRYHDxxakmDz7gFWDE87TkGT3//8x+9poyLlAduk2Woy6Ndu2RZN0IMM6UFhg6XytJGpyWTHYmYUtjYBBaBCQ6uRux+9IpOXSQGa7My1OXRrl0YKI5fTZsIVtUGQiw1pQUGEAdeL5slwsL8FTLZ+TcoHkSFfextCp2cpz2f7Rj2hN+wYUP4uxRQ/7wMdeDHYFhMIFLtguiQVpOUoSZaQowKygezSCBCCBODxyZWWDcILOITWzdCDAMSmCUEqw/XK89lE2KQkcAIISqjozEYIYQoggRGCFEZEhghRGVIYIQQlSGBEUJURqbAMBvVki7pN5GFEJ2QKTAE8RE/Q/AeM1SZFMa09n6cjcokNps5Gy+ahi/E0pHrIg1KakfSKzCdh2VmZiYs9jlOaCWEWDwWCIwF4DGtfd++fU1LgJgay+9COWXedfKBe1g7lHnLInaz+GxlPqeKEGJ4WCAwFoVMzhNvCRBDY/ldKJ+YmAhCYsIQZ6lDgIB9CWpkWxZAeK5evRqORTlT5Y8fPx7KPFmuj8aEhBgMcl2kPHz6BSC3C1aORVMjRpOTk+F/IqkREfKiYOmcP38+RB2b+0WKh++++26BFeNdH78wJiSE6H86FhhLv+BFIy9niiXRxmoh8xtiZBYJYqWMb0IMHx0LDOAOYXlcvHixdvPmzWTCa8MywjGGw9spXC5vlfjUk4ZcJCEGm1ICE+ecHR8fry1fvjxYI2vXrm0RCAaELQcvWeLI6oaFg1vE2ylLPJVHty6SH3gWQiw+hQWGLHNYHmRrMwsCseAnPiB2jxiDIZMbFgeWzfT0dDPvCQKByFjWOBaEoJ3gCCEGi67zwfhX0mbBsK4fMrX1Sz2EGFW6GoOBrF8S6Aeom39bJYRYXLoSGF4rYyW0y7i/VOCKKR2lEEuHUmYKISqjaxdJCCGykMAIISpDAiOEqAwJjBCiMiQwGVhGP4sAHyaG+dpEf5EpMJavJWuafVa5rc+aoZuKL/Lb2PT+eJulmO6/YsWKMHMZUvX2HTTvutjOr1+/fn0In4B2nd3aw+/jidvLtmvXjv7ahKiKpMBwc5KvZdu2bWEmbJxGgc8EOW7atKmx5vaN7vO8sBASsGXLlpZjWF4Zyi22Kd6GfDR2DJbFzkxHGMPq1asbn+bx9SZYc8eOHS2d3pezkDeHSX7EcPkywiZo25RgxJBnh0DSjRs3hpQYHtqLdiNcw8556tSp2ttvvx2+D0i1Y+rahKiCXBeJCXTEH1nOF4PIZ4IbCXI0CGykIx04cKBl5uzu3bvDMdgnBdsylT9vm36E+KqxsbGQTKssWCxF90VUaGtmJJMSw4QDSNLFREIvvuTjOXjwoGYvi74gV2Duvvvu8HT0kc88NT/99NOQJMpDOoZUyAA3OlaMpWtIwTacJ+5AvcasrNhtYIldFOpER7UEWjEmunkpKrqF+lqeHc6DgJMaw8qwFjuZRd3u2oToFW0HeXnaYqJjqgMdixQNpGqIsaRSMVnrPVgwHnICW+enDt596hQ6Fm6LdxlsKRJSYDmJqROie/r06QUpKnyEeNa4illq7cQJMUFU2I7zUEfiqwB3i7J2VNGOQhSlrcBwY2Oiz83NhacmHSsrgDDLSsmzXoy4s/ixg1QyqqXAxlFwbaiv5bsx4jEYL1qxODHY2u6a4kBSrBVEq4xI9GM7itGhrcCA5cw9e/Zs84kag5WCyR67OHQGOkWeKW+uAG5SSrh6Becp6iLlQSclkDI1AJ6FF58iHd3aLf5lhzNnzgQrkv29RSNEP1JIYCxz3bPPPhusl1TnwPxGfA4fPtxYMw8Dkbg/JKzKgn3Yl2NUSbcuksdENh4A7xXmRmEt+XrySw82JobwkynQv8LnzdSePXsWCL0QS0EhgaFjIizr1q1r/ixJDKLDmARWjLcMwF7XGvFYBcRPdT92wOI7UT9AXWkT6+wQXxfWUtGO7pOgP/XUU7XPP/88KeaICj8Pw5gYg7S8lj506FBzX15/v/LKK8327vd2FMON0jUIISqjkAUjhBCdIIERQlSGBEYIURkSGCFEZUhghBCVIYERQlSGBEYIURktAsMsUBIWaULW/FR9ZhbTFvGEOdrphRdeKBQmwH7sXyYUoR8gcRgLUHcFSnYG/ajMhEsP+3L/ZSUbS8E+9r31Gu6DrAmbWedtEZi5ubna1q1bw5T0xU7w1G8ws5iZtLQF6SZ8mgQSOu3fv79llq0JiX0BZW6KXsGXvJRCwA3mb7wyQlwUE/74Bh82uE5miZPY7NKlSyH7YLfX3U3bcX9//PHHITSG8BViB+175Xvmd+jJ/RSzwEUqklphFPAR4LSJRXsTN0XIhM+lQkO3yyy3GPBQ6HXENPXnRie4s5fH7RTqwDWOwgPQpzXtxXV3cwwCdX/55ZfwP+Ew99xzTxAa7n0etj48xRMExpSNyF1iV+zpi9Kx8GSyJ7M39dnGXCpfxvHMLbByPv/666/hPHzmrykgcB47zlI8/WMQFRMZ/hKwyfUQazU5ORnWG0Uyy/FllL32su3IdpQjCln7Zgke21kd2O7vv/8O64l54mayYFW/ndWVc1EPu3+snIDQDz74IHQSO3d8z9jTlDKCNHlKUs7xaOvUOrsusHPHx/NtGreRrbf6G34fW1LHi/fz+OvjvNeuXWuUzB/DfwdWd7sWg8+0GW1HG9p5Wfy2vl/G7kmqz3Je33bgt4vbiTIr/+STT0LAM/cxYvPXX3+FOnLvb968OTt5Wf1p22RmZubWyZMnG59uhf/ZpG6mNT9PTEzcqp8kLFNTU+EvsI0v43/K65Vpfq4/+W/VTaywjjLOF+8LnMf27QSrd7zY+YpgdWY/6lJX71vPP/98qL/HrsXaKMbK7frKXLvVIf6c147t9uX4MVZm18DfVHtxzunp6XA8iL8ntvfHZ3vajONDfB7KN23a1HItlNv2eevsGPE5IT6vkVf/eB9/XM7l6xBft2F1s/04Jt+VbRvvx/F8e3go8/ebHdu2jY/15ptvhm1Zz3fnt7O6tzsG12zfOdtwHLYxbJ2t57PfP0Xbt0j1EzZTGRBJXd8nqBjmFlHSZjajZlYGmHe7du0KT3C24Rgku0bpWIc7YfljyGniI4dRUp9FryxYEtQlXjDzi2LmJPtxne+8805Qaq7PPxnqjdt0n/IwF6PstZdpx5jUvqnkX/UbsyWlBtvxvcfEVhn7cO20QRHi83A8osh9MvOUK9bOPUulWv3+++8XpNLIqz/fK09ozH/wFmzR+5PPrKccOB/fVa/hWrlm6mTXwvfM+SCrz3pSx7C8T2bF1MWjxVrnmNaXuMZjx46F8zJsEFtARluB8SAiK1eubHxqNTcx5X7//fdGSXG4UDqIN605DzdIv2AmpTUqNy4L/1+/fj2UlYEbGxb72rPG14oIpOFdBZ/0vQicJ05pgVvVDYgPg/Ac025wOhpjYPzqA+cwNwey6k+7Iw6IjXU+2qvMd0QnvnHjRuNTdRR9qEHcZw07hk8TQh8uWn9co9deey1cM+3D8RAr1ntKCYwHXxOlpKOhaPxdtWpVo7Q4qCc3SN3kaqojCyPnpshl8TeRX2I/tQhcJ0Kyffv28JmnHF8aC//z5aHsnWSWq+LaO8EErx0ILQO+3FTUs24iN0qKwXl4KnIz+uvtdsAWkeE4fA979+4NokD70Y7cl+TLoe559WedjReZFcPTu8x3xL5YjVVD/Yp+Z1nYMWgDf11FXhKYYJuVRPvQTqk6dSwwfCF0WhoVMHM7sWCAJwVffGxedUovXCTgRuUnVVBqa3Seclw7C4OffFHdZJbr9bV3At/hhQsXmq/i6Ygpy4InHjeRdcCUqMYuGBYebQXxeXoNbWk3u8E5H3nkkfA3r/6UeRHxSdKKfkecAwuATgrcA4ibwbm5fnOteNqTArUsJnrUye4v7lPOV5TUMYrAOfhVEXvggrnotCFt5elYYFAvFhoVocGk5IvsBAQB88qOxZLy5xYbknrzJZhSIzKMw2BKsjzzzDPhizKTPC+zXBb9cO3Uf3Z2tmku0/HobDHmj9NB2Y43Tf6JbUJLGSLFcTkmbcXbC1KvetfFFrbtBG5qjmvHobNw43M8W0e72luOvPpTxj1s+7GYxVv0O+L+OHr0aPM+oNN7geE+Yp4Z7UE5Fj8WXSfYnBO7ln/++WeBRdUO715yDBbaM0twWB8/cG08jWPQ/rSLRxnthKhjYmJWLp2JAUyExR4wojwdWzBCDAuICWa+N+/LDKSKbGTBCFEHdwdXyI+JMAAq66U7JDBCiIqo1f4Pgza3+zLYepwAAAAASUVORK5CYII=;" vertex="1" parent="1">
          <mxGeometry x="567.5" y="390" width="188.43" height="85.46" as="geometry" />
        </mxCell>
        <mxCell id="U_VhCcRRjhPpKKrQda5U-3" value="&lt;b&gt;Part (BAM001)&lt;/b&gt;" style="text;strokeColor=none;align=center;fillColor=none;html=1;verticalAlign=middle;whiteSpace=wrap;rounded=0;" vertex="1" parent="1">
          <mxGeometry x="550" y="370" width="120" height="20" as="geometry" />
        </mxCell>
      </root>
    </mxGraphModel>
  </diagram>
</mxfile>
